<?xml version="1.0" encoding="UTF-8"?>
<svg width="137px" height="18px" viewBox="0 0 137 18" version="1.1" xmlns="http://www.w3.org/2000/svg" xmlns:xlink="http://www.w3.org/1999/xlink">
    <!-- Generator: Sketch 49.3 (51167) - http://www.bohemiancoding.com/sketch -->
    <title>Page 1a</title>
    <desc>Created with Sketch.</desc>
    <defs>
        <polygon id="path-1" points="0 1.22966118 8.48277882 1.22966118 8.48277882 10.0178259 0 10.0178259"></polygon>
        <polygon id="path-3" points="0 17.4496941 136.949576 17.4496941 136.949576 -1.77635684e-15 0 -1.77635684e-15"></polygon>
        <polygon id="path-5" points="0 17.4496941 136.949576 17.4496941 136.949576 -1.77635684e-15 0 -1.77635684e-15"></polygon>
        <polygon id="path-7" points="0 17.4496941 136.949576 17.4496941 136.949576 -1.77635684e-15 0 -1.77635684e-15"></polygon>
        <polygon id="path-9" points="0 17.4496941 136.949576 17.4496941 136.949576 -1.77635684e-15 0 -1.77635684e-15"></polygon>
        <polygon id="path-11" points="0 17.4496941 136.949576 17.4496941 136.949576 -1.77635684e-15 0 -1.77635684e-15"></polygon>
        <polygon id="path-13" points="0 17.4496941 136.949576 17.4496941 136.949576 -1.77635684e-15 0 -1.77635684e-15"></polygon>
        <polygon id="path-15" points="0 17.4496941 136.949576 17.4496941 136.949576 -1.77635684e-15 0 -1.77635684e-15"></polygon>
        <polygon id="path-17" points="0 17.4496941 136.949576 17.4496941 136.949576 -1.77635684e-15 0 -1.77635684e-15"></polygon>
        <polygon id="path-19" points="0 17.4496941 136.949576 17.4496941 136.949576 -1.77635684e-15 0 -1.77635684e-15"></polygon>
        <polygon id="path-21" points="0 17.4496941 136.949576 17.4496941 136.949576 -1.77635684e-15 0 -1.77635684e-15"></polygon>
        <polygon id="path-23" points="0 17.4496941 136.949576 17.4496941 136.949576 -1.77635684e-15 0 -1.77635684e-15"></polygon>
        <polygon id="path-25" points="0 17.4496941 136.949576 17.4496941 136.949576 -1.77635684e-15 0 -1.77635684e-15"></polygon>
        <polygon id="path-27" points="0 17.4496941 136.949576 17.4496941 136.949576 -1.77635684e-15 0 -1.77635684e-15"></polygon>
    </defs>
    <g id="Mocks" stroke="none" stroke-width="1" fill="none" fill-rule="evenodd">
        <g id="1_home_vision" transform="translate(-333.000000, -853.000000)">
            <g id="Card-Copy-3">
                <g id="Group-8-Copy" transform="translate(314.000000, 648.000000)">
                    <g id="Group-3" transform="translate(0.000000, 194.000000)">
                        <g id="Group-7-Copy-4">
                            <g id="Group-13">
                                <g id="Group-6">
                                    <g id="Group-5">
                                        <g id="Page-1a" transform="translate(19.000000, 11.000000)">
                                            <g id="Group-3" transform="translate(0.000000, 4.461459)">
                                                <g id="Fill-1-Clipped">
                                                    <mask id="mask-2" fill="white">
                                                        <use xlink:href="#path-1"></use>
                                                    </mask>
                                                    <g id="path-1"></g>
                                                    <path d="M7.83823765,7.61662588 C7.83823765,8.16537882 7.93727294,8.27740235 8.41783765,8.27740235 L8.48277882,8.27740235 L8.48277882,9.76130824 C8.27659059,9.85872 8.01520235,9.95450824 7.53301412,9.95450824 C6.46635529,9.95450824 5.91922588,9.63142588 5.74226118,8.87323765 C5.19350824,9.53563765 4.22588471,10.0178259 2.83939059,10.0178259 C1.12981412,10.0178259 -0.000162352941,9.13300235 -0.000162352941,7.51921412 C-0.000162352941,6.71232 0.257978824,6.14895529 0.725555294,5.74632 C1.25807294,5.29335529 2.03249647,5.05144941 3.41899059,4.90695529 C4.90289647,4.74460235 5.54906118,4.61634353 5.54906118,3.87439059 C5.54906118,2.92300235 4.85419059,2.76227294 4.08301412,2.76227294 C3.13162588,2.76227294 2.62995529,3.14867294 2.54877882,4.01888471 L0.257978824,4.01888471 C0.357014118,2.19728471 1.85390824,1.22966118 4.19341412,1.22966118 C6.62870824,1.22966118 7.83823765,2.05279059 7.83823765,3.60001412 L7.83823765,7.61662588 Z M3.69336706,8.48683765 C4.91913176,8.48683765 5.54906118,7.82606118 5.54906118,6.60029647 L5.54906118,5.71384941 C5.33800235,5.90704941 4.93536706,6.02069647 4.16094353,6.11648471 C2.98388471,6.26097882 2.29063765,6.51912 2.29063765,7.42342588 C2.29063765,8.08420235 2.69327294,8.48683765 3.69336706,8.48683765 Z" id="Fill-1" fill="#FFFFFF" fill-rule="nonzero" mask="url(#mask-2)"></path>
                                                </g>
                                            </g>
                                            <polygon id="Fill-4" fill="#FFFFFF" fill-rule="nonzero" points="10.5842753 5.91695294 12.3425576 11.6106706 12.3766518 11.6106706 14.1349341 5.91695294 16.4078753 5.91695294 13.5861812 14.2554 11.0356165 14.2554 8.18307529 5.91695294"></polygon>
                                            <path d="M24.2003294,12.0780847 C24.2003294,12.6268376 24.2993647,12.7388612 24.7799294,12.7388612 L24.8464941,12.7388612 L24.8464941,14.2227671 C24.6386824,14.3201788 24.3772941,14.4159671 23.8967294,14.4159671 C22.8284471,14.4159671 22.2813176,14.0928847 22.1043529,13.3346965 C21.5556,13.9970965 20.5879765,14.4792847 19.2014824,14.4792847 C17.4919059,14.4792847 16.3619294,13.5944612 16.3619294,11.9806729 C16.3619294,11.1737788 16.6200706,10.6104141 17.0876471,10.2077788 C17.6201647,9.75481412 18.3945882,9.51290824 19.7810824,9.36841412 C21.2649882,9.20606118 21.9111529,9.07780235 21.9111529,8.33584941 C21.9111529,7.38446118 21.2162824,7.22373176 20.4451059,7.22373176 C19.4937176,7.22373176 18.9920471,7.61013176 18.9108706,8.48034353 L16.6200706,8.48034353 C16.7191059,6.65874353 18.2176235,5.69112 20.5555059,5.69112 C22.9908,5.69112 24.2003294,6.51424941 24.2003294,8.06147294 L24.2003294,12.0780847 Z M20.0554588,12.9482965 C21.2812235,12.9482965 21.9111529,12.28752 21.9111529,11.0617553 L21.9111529,10.1753082 C21.7000941,10.3685082 21.2974588,10.4821553 20.5230353,10.5779435 C19.3459765,10.7224376 18.6527294,10.9805788 18.6527294,11.8848847 C18.6527294,12.5456612 19.0553647,12.9482965 20.0554588,12.9482965 Z" id="Fill-6" fill="#FFFFFF" fill-rule="nonzero"></path>
                                            <path d="M26.7038118,2.46532941 C27.4132941,2.46532941 27.9945176,3.04655294 27.9945176,3.75603529 C27.9945176,4.46551765 27.4132941,5.04674118 26.7038118,5.04674118 C25.9943294,5.04674118 25.4131059,4.46551765 25.4131059,3.75603529 C25.4131059,3.04655294 25.9943294,2.46532941 26.7038118,2.46532941 Z M25.5592235,14.2554 L27.8484,14.2554 L27.8484,5.91695294 L25.5592235,5.91695294 L25.5592235,14.2554 Z" id="Fill-8" fill="#FFFFFF" fill-rule="nonzero"></path>
                                            <g id="Fill-10-Clipped">
                                                <mask id="mask-4" fill="white">
                                                    <use xlink:href="#path-3"></use>
                                                </mask>
                                                <g id="path-3"></g>
                                                <polygon id="Fill-10" fill="#FFFFFF" fill-rule="nonzero" mask="url(#mask-4)" points="28.8371294 14.2545882 31.1263059 14.2545882 31.1263059 2.73889412 28.8371294 2.73889412"></polygon>
                                            </g>
                                            <g id="Fill-12-Clipped">
                                                <mask id="mask-6" fill="white">
                                                    <use xlink:href="#path-5"></use>
                                                </mask>
                                                <g id="path-3"></g>
                                                <path d="M39.7728988,12.0780847 C39.7728988,12.6268376 39.8719341,12.7388612 40.3524988,12.7388612 L40.4190635,12.7388612 L40.4190635,14.2227671 C40.2112518,14.3201788 39.9498635,14.4159671 39.4692988,14.4159671 C38.4010165,14.4159671 37.8538871,14.0928847 37.6769224,13.3346965 C37.1281694,13.9970965 36.1605459,14.4792847 34.7740518,14.4792847 C33.0644753,14.4792847 31.9344988,13.5944612 31.9344988,11.9806729 C31.9344988,11.1737788 32.19264,10.6104141 32.6602165,10.2077788 C33.1927341,9.75481412 33.9671576,9.51290824 35.3536518,9.36841412 C36.8375576,9.20606118 37.4837224,9.07780235 37.4837224,8.33584941 C37.4837224,7.38446118 36.7888518,7.22373176 36.0176753,7.22373176 C35.0662871,7.22373176 34.5646165,7.61013176 34.48344,8.48034353 L32.19264,8.48034353 C32.2916753,6.65874353 33.7901929,5.69112 36.1280753,5.69112 C38.5633694,5.69112 39.7728988,6.51424941 39.7728988,8.06147294 L39.7728988,12.0780847 Z M35.6280282,12.9482965 C36.8537929,12.9482965 37.4837224,12.28752 37.4837224,11.0617553 L37.4837224,10.1753082 C37.2726635,10.3685082 36.8700282,10.4821553 36.0956047,10.5779435 C34.9185459,10.7224376 34.2252988,10.9805788 34.2252988,11.8848847 C34.2252988,12.5456612 34.6279341,12.9482965 35.6280282,12.9482965 Z" id="Fill-12" fill="#FFFFFF" fill-rule="nonzero" mask="url(#mask-6)"></path>
                                            </g>
                                            <g id="Fill-13-Clipped">
                                                <mask id="mask-8" fill="white">
                                                    <use xlink:href="#path-7"></use>
                                                </mask>
                                                <g id="path-3"></g>
                                                <path d="M43.5193553,2.73970588 L43.5193553,6.93328235 L43.5534494,6.93328235 C44.0502494,6.17509412 45.0016376,5.69128235 46.1819435,5.69128235 C47.8574259,5.69128235 49.6335671,7.04530588 49.6335671,10.0764353 C49.6335671,12.9971647 47.9694494,14.4794471 46.1640847,14.4794471 C44.82792,14.4794471 43.8911435,14.0297294 43.4381788,13.1903647 L43.4073318,13.1903647 L43.4073318,14.2554 L41.2285553,14.2554 L41.2285553,2.73970588 L43.5193553,2.73970588 Z M45.3896612,12.7552588 C46.6787435,12.7552588 47.3411435,11.5765765 47.3411435,10.0942941 C47.3411435,8.61038824 46.7128376,7.41709412 45.3750494,7.41709412 C44.1151906,7.41709412 43.4381788,8.56168235 43.4381788,10.0942941 C43.4381788,11.6269059 44.1314259,12.7552588 45.3896612,12.7552588 Z" id="Fill-13" fill="#FFFFFF" fill-rule="nonzero" mask="url(#mask-8)"></path>
                                            </g>
                                            <g id="Fill-14-Clipped">
                                                <mask id="mask-10" fill="white">
                                                    <use xlink:href="#path-9"></use>
                                                </mask>
                                                <g id="path-3"></g>
                                                <polygon id="Fill-14" fill="#FFFFFF" fill-rule="nonzero" mask="url(#mask-10)" points="50.5096235 14.2545882 52.7988 14.2545882 52.7988 2.73889412 50.5096235 2.73889412"></polygon>
                                            </g>
                                            <g id="Fill-15-Clipped">
                                                <mask id="mask-12" fill="white">
                                                    <use xlink:href="#path-11"></use>
                                                </mask>
                                                <g id="path-3"></g>
                                                <path d="M61.9616753,10.22304 C61.9616753,10.3512988 61.9438165,10.6435341 61.9438165,10.6435341 L55.92864,10.6435341 C55.9935812,12.0787341 56.6543576,12.7557459 57.9612988,12.7557459 C58.8315106,12.7557459 59.6075576,12.2556988 59.7828988,11.6728518 L61.7993224,11.6728518 C61.1856282,13.56264 59.8981694,14.4799341 57.8963576,14.4799341 C55.2516282,14.4799341 53.6394635,12.6583341 53.6394635,10.0947812 C53.6394635,7.57831059 55.3815106,5.69176941 57.8963576,5.69176941 C60.5248518,5.69176941 61.9616753,7.75527529 61.9616753,10.22304 Z M59.65464,9.19047529 C59.4289694,7.93386353 58.8834635,7.41595765 57.8151812,7.41595765 C56.7046871,7.41595765 56.0260518,8.09296941 55.92864,9.19047529 L59.65464,9.19047529 Z" id="Fill-15" fill="#FFFFFF" fill-rule="nonzero" mask="url(#mask-12)"></path>
                                            </g>
                                            <g id="Fill-16-Clipped">
                                                <mask id="mask-14" fill="white">
                                                    <use xlink:href="#path-13"></use>
                                                </mask>
                                                <g id="path-3"></g>
                                                <path d="M73.9019224,12.0780847 C73.9019224,12.6268376 74.0009576,12.7388612 74.4815224,12.7388612 L74.5464635,12.7388612 L74.5464635,14.2227671 C74.3402753,14.3201788 74.0788871,14.4159671 73.5983224,14.4159671 C72.53004,14.4159671 71.9829106,14.0928847 71.8059459,13.3346965 C71.2571929,13.9970965 70.2895694,14.4792847 68.9030753,14.4792847 C67.1934988,14.4792847 66.0635224,13.5944612 66.0635224,11.9806729 C66.0635224,11.1737788 66.3216635,10.6104141 66.78924,10.2077788 C67.3217576,9.75481412 68.0961812,9.51290824 69.4826753,9.36841412 C70.9665812,9.20606118 71.6127459,9.07780235 71.6127459,8.33584941 C71.6127459,7.38446118 70.9178753,7.22373176 70.1466988,7.22373176 C69.1953106,7.22373176 68.69364,7.61013176 68.6124635,8.48034353 L66.3216635,8.48034353 C66.4206988,6.65874353 67.9175929,5.69112 70.2570988,5.69112 C72.6923929,5.69112 73.9019224,6.51424941 73.9019224,8.06147294 L73.9019224,12.0780847 Z M69.7570518,12.9482965 C70.9828165,12.9482965 71.6127459,12.28752 71.6127459,11.0617553 L71.6127459,10.1753082 C71.4016871,10.3685082 70.9990518,10.4821553 70.2246282,10.5779435 C69.0475694,10.7224376 68.3543224,10.9805788 68.3543224,11.8848847 C68.3543224,12.5456612 68.7569576,12.9482965 69.7570518,12.9482965 Z" id="Fill-16" fill="#FFFFFF" fill-rule="nonzero" mask="url(#mask-14)"></path>
                                            </g>
                                            <g id="Fill-17-Clipped">
                                                <mask id="mask-16" fill="white">
                                                    <use xlink:href="#path-15"></use>
                                                </mask>
                                                <g id="path-3"></g>
                                                <path d="M78.0985835,3.41655529 L78.0985835,5.91679059 L79.7756894,5.91679059 L79.7756894,7.44777882 L78.0985835,7.44777882 L78.0985835,11.5764141 C78.0985835,12.3524612 78.2917835,12.5456612 79.0694541,12.5456612 C79.3243482,12.5456612 79.5824894,12.5294259 79.7756894,12.48072 L79.7756894,14.2714729 C79.3892894,14.3364141 78.8746306,14.3510259 78.4216659,14.3510259 C76.6633835,14.3510259 75.8094071,13.8185082 75.8094071,12.3362259 L75.8094071,7.44777882 L74.4212894,7.44777882 L74.4212894,5.91679059 L75.8094071,5.91679059 L75.8094071,3.41655529 L78.0985835,3.41655529 Z" id="Fill-17" fill="#FFFFFF" fill-rule="nonzero" mask="url(#mask-16)"></path>
                                            </g>
                                            <g id="Fill-18-Clipped">
                                                <mask id="mask-18" fill="white">
                                                    <use xlink:href="#path-17"></use>
                                                </mask>
                                                <g id="path-3"></g>
                                                <path d="M102.010736,8.72484706 C102.010736,13.5451059 98.1045247,17.4496941 93.2842659,17.4496941 C88.4672541,17.4496941 84.5610424,13.5451059 84.5610424,8.72484706 C84.5610424,3.90621176 88.4672541,-1.77635684e-15 93.2842659,-1.77635684e-15 C98.1045247,-1.77635684e-15 102.010736,3.90621176 102.010736,8.72484706 M93.2842659,2.90449412 C90.0713012,2.90449412 87.4639129,5.51025882 87.4639129,8.72484706 C87.4639129,11.9394353 90.0713012,14.5452 93.2842659,14.5452 C96.5004776,14.5452 99.1062424,11.9394353 99.1062424,8.72484706 C99.1062424,5.51025882 96.5004776,2.90449412 93.2842659,2.90449412" id="Fill-18" fill="#FFFFFF" fill-rule="nonzero" mask="url(#mask-18)"></path>
                                            </g>
                                            <g id="Fill-19-Clipped">
                                                <mask id="mask-20" fill="white">
                                                    <use xlink:href="#path-19"></use>
                                                </mask>
                                                <g id="path-3"></g>
                                                <path d="M93.2858894,5.73463059 C91.6331365,5.73463059 90.2937247,7.07404235 90.2937247,8.72517176 C90.2937247,10.3763012 91.6331365,11.7157129 93.2858894,11.7157129 C94.9386424,11.7157129 96.2780541,10.3763012 96.2780541,8.72517176 C96.2780541,7.07404235 94.9386424,5.73463059 93.2858894,5.73463059" id="Fill-19" fill="#FFFFFF" fill-rule="nonzero" mask="url(#mask-20)"></path>
                                            </g>
                                            <g id="Fill-20-Clipped">
                                                <mask id="mask-22" fill="white">
                                                    <use xlink:href="#path-21"></use>
                                                </mask>
                                                <g id="path-3"></g>
                                                <path d="M105.175482,13.0421365 C105.175482,13.7353835 104.545553,14.39616 103.837694,14.39616 C103.095741,14.39616 102.447953,13.8003247 102.447953,13.0421365 C102.447953,12.2677129 103.095741,11.6702541 103.821459,11.6702541 C104.563412,11.6702541 105.175482,12.3001835 105.175482,13.0421365" id="Fill-20" fill="#FFFFFF" fill-rule="nonzero" mask="url(#mask-22)"></path>
                                            </g>
                                            <g id="Fill-21-Clipped">
                                                <mask id="mask-24" fill="white">
                                                    <use xlink:href="#path-23"></use>
                                                </mask>
                                                <g id="path-3"></g>
                                                <path d="M113.990598,8.86430824 L111.74688,8.86430824 C111.600762,7.91292 111.039021,7.42910824 110.053539,7.42910824 C108.668668,7.42910824 108.102056,8.78475529 108.102056,10.1387788 C108.102056,11.5106612 108.668668,12.7672729 110.006456,12.7672729 C111.022786,12.7672729 111.665704,12.1876729 111.82968,11.0739318 L114.036056,11.0739318 C113.732456,13.26732 112.248551,14.4930847 110.022692,14.4930847 C107.426668,14.4930847 105.814504,12.6390141 105.814504,10.2199553 C105.814504,7.55899059 107.426668,5.70492 110.071398,5.70492 C112.198221,5.70492 113.876951,6.86412 113.990598,8.86430824" id="Fill-21" fill="#FFFFFF" fill-rule="nonzero" mask="url(#mask-24)"></path>
                                            </g>
                                            <g id="Fill-22-Clipped">
                                                <mask id="mask-26" fill="white">
                                                    <use xlink:href="#path-25"></use>
                                                </mask>
                                                <g id="path-3"></g>
                                                <path d="M123.298941,10.1072824 C123.298941,12.7990941 121.542282,14.4924353 118.977106,14.4924353 C116.348612,14.4924353 114.673129,12.7357765 114.673129,10.1072824 C114.673129,7.44469412 116.364847,5.70427059 118.977106,5.70427059 C121.623459,5.70427059 123.298941,7.46092941 123.298941,10.1072824 M118.977106,12.7682471 C120.332753,12.7682471 121.009765,11.7519176 121.009765,10.1072824 C121.009765,8.75163529 120.542188,7.43008235 118.959247,7.43008235 C117.688024,7.43008235 116.962306,8.39608235 116.962306,10.1072824 C116.962306,11.8006235 117.668541,12.7682471 118.977106,12.7682471" id="Fill-22" fill="#FFFFFF" fill-rule="nonzero" mask="url(#mask-26)"></path>
                                            </g>
                                            <g id="Fill-23-Clipped">
                                                <mask id="mask-28" fill="white">
                                                    <use xlink:href="#path-27"></use>
                                                </mask>
                                                <g id="path-3"></g>
                                                <path d="M131.383306,7.09173882 C131.998624,6.20366824 132.902929,5.70524471 133.917635,5.70524471 C135.979518,5.70524471 136.950388,6.83359765 136.950388,8.67143294 L136.950388,14.2677388 L134.659588,14.2677388 L134.659588,9.44585647 C134.659588,8.34835059 134.497235,7.51060941 133.253612,7.51060941 C132.173965,7.51060941 131.722624,8.26879765 131.722624,9.60658588 L131.722624,14.2677388 L129.435071,14.2677388 L129.435071,9.35006824 C129.435071,8.26879765 129.271094,7.51060941 128.045329,7.51060941 C127.512812,7.51060941 126.496482,7.88077412 126.496482,9.41338588 L126.496482,14.2677388 L124.207306,14.2677388 L124.207306,5.92929176 L126.368224,5.92929176 L126.368224,7.05764471 L126.402318,7.05764471 C127.045235,6.13872706 127.917071,5.70524471 128.948012,5.70524471 C130.193259,5.70524471 130.998529,6.21990353 131.383306,7.09173882" id="Fill-23" fill="#FFFFFF" fill-rule="nonzero" mask="url(#mask-28)"></path>
                                            </g>
                                        </g>
                                    </g>
                                </g>
                            </g>
                        </g>
                    </g>
                </g>
            </g>
        </g>
    </g>
</svg>