<?xml version="1.0" encoding="UTF-8"?>
<svg width="97px" height="48px" viewBox="0 0 97 48" version="1.1" xmlns="http://www.w3.org/2000/svg" xmlns:xlink="http://www.w3.org/1999/xlink">
    <!-- Generator: Sketch 49.3 (51167) - http://www.bohemiancoding.com/sketch -->
    <title>Page 1</title>
    <desc>Created with Sketch.</desc>
    <defs></defs>
    <g id="Mocks" stroke="none" stroke-width="1" fill="none" fill-rule="evenodd">
        <g id="1_AIY_Intro_1" transform="translate(-912.000000, -989.000000)">
            <g id="Page-1" transform="translate(912.000000, 989.000000)">
                <polygon id="Clip-2" points="0.000131972789 0 96.3620435 0 96.3620435 47.6605211 0.000131972789 47.6605211"></polygon>
                <path d="M46.1965469,44.3328272 L46.1965469,47.6605211 L1.66430884,47.6605211 C0.745778231,47.6605211 0.000131972789,46.9155347 0.000131972789,45.9970041 L0.000131972789,1.66338503 C0.000131972789,0.744854422 0.745778231,-0.000131972789 1.66430884,-0.000131972789 L46.1965469,-0.000131972789 L46.1965469,3.3275619 L3.32782585,3.3275619 L3.32782585,44.3328272 L46.1965469,44.3328272 Z M94.6991864,-0.000131972789 L50.1359347,-0.000131972789 L50.1359347,3.3275619 L93.0343497,3.3275619 L93.0343497,44.3328272 L50.1359347,44.3328272 L50.1359347,47.6605211 L94.6991864,47.6605211 C95.617717,47.6605211 96.3620435,46.9161946 96.3620435,45.9970041 L96.3620435,1.66338503 C96.3620435,0.744854422 95.617717,-0.000131972789 94.6991864,-0.000131972789 Z M14.472268,11.940766 L16.2585197,11.940766 L18.6802204,18.3216503 L18.750166,18.3216503 L21.1712068,11.940766 L22.9574585,11.940766 L22.9574585,20.3546912 L21.6535673,20.3546912 L21.6535673,15.6419429 L21.7235129,14.1268952 L21.6535673,14.1268952 L19.2437442,20.3546912 L18.1859823,20.3546912 L15.7774789,14.1268952 L15.7068735,14.1268952 L15.7774789,15.6419429 L15.7774789,20.3546912 L14.472268,20.3546912 L14.472268,11.940766 Z M25.1072952,20.2900245 C24.7707646,20.1217592 24.5087986,19.8828884 24.3207374,19.5734122 C24.1326762,19.2639361 24.0383156,18.9135483 24.0383156,18.5215891 C24.0383156,17.9032966 24.2712476,17.4130177 24.7377714,17.052732 C25.2036354,16.6924463 25.7935537,16.5123034 26.5062068,16.5123034 C26.8585741,16.5123034 27.1759687,16.5452966 27.4583905,16.6126027 C27.7401524,16.6785891 27.9638463,16.7511741 28.1274925,16.829698 L28.1274925,16.524181 C28.1274925,16.1559769 27.9909007,15.8563986 27.7163973,15.6247864 C27.4425537,15.393834 27.0895265,15.2783578 26.6586354,15.2783578 C26.3537782,15.2783578 26.0654177,15.3443442 25.7955333,15.4782966 C25.5249891,15.6109293 25.307234,15.7956912 25.1435878,16.0306027 L24.2382544,15.3370857 C24.5048395,14.9682218 24.8492884,14.6831605 25.2722612,14.4792626 C25.695234,14.2753646 26.1650571,14.1730857 26.6823905,14.1730857 C27.5520912,14.1730857 28.2225129,14.3875415 28.6923361,14.8138136 C29.1621592,15.2414054 29.3970707,15.8418816 29.3970707,16.6178816 L29.3970707,20.3546912 L28.1274925,20.3546912 L28.1274925,19.6380789 L28.0687646,19.6380789 C27.8972,19.8967456 27.6537102,20.1118612 27.3409347,20.2847456 C27.0274993,20.4569701 26.6672136,20.5434122 26.2594177,20.5434122 C25.8285265,20.5434122 25.4444857,20.4589497 25.1072952,20.2900245 Z M27.3290571,19.2507388 C27.5798054,19.1016095 27.7751252,18.9016707 27.9163361,18.6509224 C28.0575469,18.400834 28.1274925,18.1296299 28.1274925,17.8399497 C27.9473497,17.7383306 27.7381728,17.6558476 27.499302,17.5931605 C27.2604313,17.5304735 27.0116626,17.4994599 26.7536558,17.4994599 C26.2673361,17.4994599 25.9110095,17.5951401 25.6833565,17.7871605 C25.4563633,17.979181 25.3428667,18.2279497 25.3428667,18.5334667 C25.3428667,18.8079701 25.4484449,19.0329837 25.6602612,19.2091673 C25.8714177,19.385351 26.1459211,19.4731129 26.4824517,19.4731129 C26.7958871,19.4731129 27.0783088,19.3992082 27.3290571,19.2507388 Z M31.8412068,20.1316571 C31.4023973,19.8571537 31.0553088,19.4790517 30.8012612,18.997351 C30.5465537,18.5163102 30.4198599,17.969283 30.4198599,17.358249 C30.4198599,16.747215 30.5465537,16.2008476 30.8012612,15.7191469 C31.0553088,15.2374463 31.4023973,14.8593442 31.8412068,14.5848408 C32.2800163,14.3109973 32.7696354,14.1730857 33.3100639,14.1730857 C33.7336966,14.1730857 34.1137782,14.2681061 34.4503088,14.4555075 C34.7868395,14.6435687 35.0415469,14.8745211 35.2137714,15.1490245 L35.2724993,15.1490245 L35.2137714,14.3030789 L35.2137714,11.940766 L36.5064449,11.940766 L36.5064449,20.3546912 L35.2724993,20.3546912 L35.2724993,19.579351 L35.2137714,19.579351 C35.0415469,19.8459361 34.7868395,20.0729293 34.4503088,20.2609905 C34.1137782,20.4490517 33.7336966,20.5434122 33.3100639,20.5434122 C32.7696354,20.5434122 32.2800163,20.4055007 31.8412068,20.1316571 Z M34.3737646,19.1095279 C34.6443088,18.9445619 34.8614041,18.7096503 35.0263701,18.4041333 C35.1900163,18.0986163 35.2724993,17.7495483 35.2724993,17.358249 C35.2724993,16.9669497 35.1900163,16.6198612 35.0263701,16.3183034 C34.8614041,16.0167456 34.6443088,15.7831537 34.3737646,15.6195075 C34.1032204,15.4545415 33.8115605,15.3720585 33.498785,15.3720585 C33.1846898,15.3720585 32.8910503,15.4545415 32.6172068,15.6195075 C32.3427034,15.7831537 32.1236286,16.0167456 31.9586626,16.3183034 C31.7943565,16.6198612 31.7125333,16.9669497 31.7125333,17.358249 C31.7125333,17.7495483 31.7943565,18.0986163 31.9586626,18.4041333 C32.1236286,18.7096503 32.3427034,18.9445619 32.6172068,19.1095279 C32.8910503,19.2731741 33.1846898,19.3556571 33.498785,19.3556571 C33.8115605,19.3556571 34.1032204,19.2731741 34.3737646,19.1095279 Z M38.9921524,20.1316571 C38.5256286,19.8571537 38.1620435,19.4790517 37.8994177,18.997351 C37.6367918,18.5163102 37.5054789,17.9732422 37.5054789,17.3694667 C37.5054789,16.7980245 37.6328327,16.2674939 37.8875401,15.7778748 C38.1415878,15.2875959 38.4965946,14.8982762 38.9512408,14.6079361 C39.4052272,14.3182558 39.9225605,14.1730857 40.502581,14.1730857 C41.1050367,14.1730857 41.6283088,14.3070381 42.0710776,14.5729633 C42.5131864,14.8395483 42.8503769,15.2044531 43.0819891,15.665698 C43.3129415,16.1282626 43.4284177,16.6495551 43.4284177,17.2289156 C43.4284177,17.3384531 43.4165401,17.4757048 43.392785,17.6406707 L38.7988122,17.6406707 C38.8450027,18.1969361 39.0429619,18.6251878 39.3920299,18.9274054 C39.7404381,19.2289633 40.1462544,19.3794122 40.6074993,19.3794122 C40.9763633,19.3794122 41.2957374,19.2956095 41.5656218,19.1266844 C41.836166,18.958419 42.0539211,18.7294463 42.2175673,18.4391061 L43.3109619,18.9564395 C43.0285401,19.4500177 42.6603361,19.8380177 42.2063497,20.1197796 C41.7517034,20.4022014 41.2073156,20.5434122 40.5725265,20.5434122 C39.9852476,20.5434122 39.4580163,20.4055007 38.9921524,20.1316571 Z M42.112649,16.6528544 C42.0961524,16.441698 42.030166,16.2325211 41.9127102,16.0246639 C41.7952544,15.8168068 41.6164313,15.6419429 41.3782204,15.5013918 C41.1380299,15.3608408 40.8463701,15.2895755 40.502581,15.2895755 C40.0868667,15.2895755 39.7364789,15.4136299 39.4507578,15.660419 C39.1643769,15.9072082 38.9664177,16.2378 38.8575401,16.6528544 L42.112649,16.6528544 Z M49.4100844,20.2609905 C49.0715741,20.0729293 48.8181864,19.8459361 48.6459619,19.579351 L48.587234,19.579351 L48.587234,20.3546912 L47.3532884,20.3546912 L47.3532884,11.940766 L48.6459619,11.940766 L48.6459619,14.3030789 L48.587234,15.1490245 L48.6459619,15.1490245 C48.8181864,14.8745211 49.0715741,14.6435687 49.4100844,14.4555075 C49.7459551,14.2681061 50.1260367,14.1730857 50.5496694,14.1730857 C51.090098,14.1730857 51.579717,14.3109973 52.0185265,14.5848408 C52.4573361,14.8593442 52.8037646,15.2374463 53.0578122,15.7191469 C53.3131796,16.2008476 53.4398735,16.747215 53.4398735,17.358249 C53.4398735,17.969283 53.3131796,18.5163102 53.0578122,18.997351 C52.8037646,19.4790517 52.4573361,19.8571537 52.0185265,20.1316571 C51.579717,20.4055007 51.090098,20.5434122 50.5496694,20.5434122 C50.1260367,20.5434122 49.7459551,20.4490517 49.4100844,20.2609905 Z M51.2418667,19.1095279 C51.5170299,18.9445619 51.7361048,18.7096503 51.9010707,18.4041333 C52.0653769,18.0986163 52.1478599,17.7495483 52.1478599,17.358249 C52.1478599,16.9669497 52.0653769,16.6198612 51.9010707,16.3183034 C51.7361048,16.0167456 51.5170299,15.7831537 51.2418667,15.6195075 C50.9680231,15.4545415 50.6750435,15.3720585 50.3616082,15.3720585 C50.0481728,15.3720585 49.7565129,15.4545415 49.4853088,15.6195075 C49.2154245,15.7831537 48.9983293,16.0167456 48.8340231,16.3183034 C48.6690571,16.6198612 48.587234,16.9669497 48.587234,17.358249 C48.587234,17.7495483 48.6690571,18.0986163 48.8340231,18.4041333 C48.9983293,18.7096503 49.2154245,18.9445619 49.4853088,19.1095279 C49.7565129,19.2731741 50.0481728,19.3556571 50.3616082,19.3556571 C50.6750435,19.3556571 50.9680231,19.2731741 51.2418667,19.1095279 Z M56.0964857,20.0260789 L53.6048395,14.3618068 L55.0499415,14.3618068 L56.7418327,18.4391061 L56.7900027,18.4391061 L58.4350435,14.3618068 L59.8563905,14.3618068 L56.1552136,22.8931878 L54.790615,22.8931878 L56.0964857,20.0260789 Z M65.2864109,20.0260789 L62.7941048,14.3618068 L64.2398667,14.3618068 L65.9324177,18.4391061 L65.9786082,18.4391061 L67.6243088,14.3618068 L69.0463156,14.3618068 L65.3451388,22.8931878 L63.9812,22.8931878 L65.2864109,20.0260789 Z M70.7263293,20.1257184 C70.2485878,19.8479156 69.8764245,19.4658544 69.6098395,18.9795347 C69.3439143,18.4945347 69.2112816,17.9534463 69.2112816,17.358249 C69.2112816,16.7630517 69.3439143,16.2219633 69.6098395,15.7369633 C69.8764245,15.2506435 70.2485878,14.8685823 70.7263293,14.5907796 C71.2040707,14.3129769 71.7451592,14.1730857 72.3489347,14.1730857 C72.9513905,14.1730857 73.4924789,14.3142966 73.9702204,14.5967184 C74.447302,14.8784803 74.8201252,15.263181 75.0867102,15.748181 C75.3526354,16.2345007 75.4865878,16.7709701 75.4865878,17.358249 C75.4865878,17.9534463 75.3526354,18.4945347 75.0867102,18.9795347 C74.8201252,19.4658544 74.447302,19.8479156 73.9702204,20.1257184 C73.4924789,20.4035211 72.9513905,20.5434122 72.3489347,20.5434122 C71.7451592,20.5434122 71.2040707,20.4035211 70.7263293,20.1257184 Z M73.2648259,19.1148068 C73.5465878,18.9551197 73.7722612,18.7235075 73.9405265,18.4212898 C74.1094517,18.1203918 74.1939143,17.7660449 74.1939143,17.358249 C74.1939143,16.9511129 74.1094517,16.5980857 73.9405265,16.3004871 C73.7722612,16.0028884 73.5465878,15.7739156 73.2648259,15.6129088 C72.9830639,15.4525619 72.6775469,15.3720585 72.3489347,15.3720585 C72.0190027,15.3720585 71.7141456,15.4525619 71.4317238,15.6129088 C71.149302,15.7739156 70.9242884,16.0028884 70.7560231,16.3004871 C70.5877578,16.5980857 70.5039551,16.9511129 70.5039551,17.358249 C70.5039551,17.7660449 70.5877578,18.1203918 70.7560231,18.4212898 C70.9242884,18.7235075 71.149302,18.9551197 71.4317238,19.1148068 C71.7141456,19.2758136 72.0190027,19.3556571 72.3489347,19.3556571 C72.6775469,19.3556571 72.9830639,19.2758136 73.2648259,19.1148068 Z M77.0788395,19.8901469 C76.6987578,19.4559565 76.508717,18.8508612 76.508717,18.0748612 L76.508717,14.3618068 L77.8013905,14.3618068 L77.8013905,17.8986776 C77.8013905,18.3843374 77.9168667,18.7485823 78.1484789,18.9920721 C78.3787714,19.234902 78.6823088,19.3556571 79.0590912,19.3556571 C79.3646082,19.3556571 79.6344925,19.2758136 79.8694041,19.1148068 C80.1043156,18.9551197 80.2844585,18.7406639 80.4104925,18.4747388 C80.5352068,18.2081537 80.5978939,17.9224327 80.5978939,17.6169156 L80.5978939,14.3618068 L81.8905673,14.3618068 L81.8905673,20.3546912 L80.6684993,20.3546912 L80.6684993,19.579351 L80.5978939,19.579351 C80.4342476,19.8611129 80.1788803,20.0920653 79.8344313,20.2722082 C79.4893224,20.4530109 79.1244177,20.5434122 78.7416966,20.5434122 C78.0132068,20.5434122 77.4589211,20.3249973 77.0788395,19.8901469 Z M15.6890571,28.0143918 L17.0873088,28.0143918 L18.2974993,32.3035075 L18.3450095,32.3035075 L19.6964109,28.0143918 L21.0240571,28.0143918 L22.3642408,32.3035075 L22.4104313,32.3035075 L23.6212816,28.0143918 L24.9964381,28.0143918 L23.0801932,34.0072762 L21.7175741,34.0072762 L20.3424177,29.706283 L20.3074449,29.706283 L18.944166,34.0072762 L17.6039823,34.0072762 L15.6890571,28.0143918 Z M25.8951728,26.9863238 C25.7269075,26.8173986 25.6431048,26.612181 25.6431048,26.369351 C25.6431048,26.1258612 25.7269075,25.9206435 25.8951728,25.7517184 C26.0634381,25.5834531 26.2693156,25.4996503 26.5121456,25.4996503 C26.7549755,25.4996503 26.9608531,25.5834531 27.1291184,25.7517184 C27.2973837,25.9206435 27.3818463,26.1258612 27.3818463,26.369351 C27.3818463,26.612181 27.2973837,26.8173986 27.1291184,26.9863238 C26.9608531,27.1539293 26.7549755,27.2383918 26.5121456,27.2383918 C26.2693156,27.2383918 26.0634381,27.1539293 25.8951728,26.9863238 Z M25.8654789,34.0072762 L27.1581524,34.0072762 L27.1581524,28.0143918 L25.8654789,28.0143918 L25.8654789,34.0072762 Z M30.2958054,34.0640245 C30.0608939,33.9756027 29.8695333,33.8601265 29.7204041,33.7162762 C29.3832136,33.3738068 29.2156082,32.9066231 29.2156082,32.315385 L29.2156082,29.1539769 L28.1690639,29.1539769 L28.1690639,28.0143918 L29.2156082,28.0143918 L29.2156082,26.3218408 L30.5082816,26.3218408 L30.5082816,28.0143918 L31.9646014,28.0143918 L31.9646014,29.1539769 L30.5082816,29.1539769 L30.5082816,32.0448408 C30.5082816,32.3747728 30.5703088,32.6070449 30.695683,32.7442966 C30.8131388,32.9053034 31.0170367,32.9851469 31.306717,32.9851469 C31.4406694,32.9851469 31.5574653,32.9673306 31.6597442,32.9323578 C31.7613633,32.8967252 31.8709007,32.8399769 31.9883565,32.7621129 L31.9883565,34.0191537 C31.7296898,34.1366095 31.4169143,34.1959973 31.0480503,34.1959973 C30.7821252,34.1959973 30.5313769,34.1511265 30.2958054,34.0640245 Z M33.0804313,25.593351 L34.3737646,25.593351 L34.3737646,27.8843986 L34.3150367,28.8016095 L34.3737646,28.8016095 C34.5459891,28.5191878 34.8020163,28.2862558 35.143166,28.1021537 C35.4843156,27.9180517 35.8498803,27.8256707 36.2418395,27.8256707 C36.9703293,27.8256707 37.5265946,28.0401265 37.9106354,28.4663986 C38.2940163,28.8939905 38.4866966,29.4753306 38.4866966,30.2117388 L38.4866966,34.0072762 L37.1940231,34.0072762 L37.1940231,30.3879224 C37.1940231,29.9332762 37.0745878,29.5934463 36.835717,29.3657932 C36.5961864,29.1381401 36.2853905,29.0246435 35.9013497,29.0246435 C35.6116694,29.0246435 35.3510231,29.1071265 35.1194109,29.2720925 C34.8884585,29.4357388 34.7063361,29.6534939 34.5730435,29.9240381 C34.439751,30.1939224 34.3737646,30.482283 34.3737646,30.7871401 L34.3737646,34.0072762 L33.0804313,34.0072762 L33.0804313,25.593351 Z M44.9263088,33.542732 C44.1740639,33.1085415 43.5768871,32.5232422 43.1347782,31.7861741 C42.6920095,31.049766 42.4702952,30.2467116 42.4702952,29.3770109 C42.4702952,28.5079701 42.6920095,27.7049156 43.1347782,26.9685075 C43.5768871,26.2320993 44.1740639,25.6461401 44.9263088,25.2112898 C45.6778939,24.7764395 46.4888667,24.5593442 47.3592272,24.5593442 C48.6354041,24.5593442 49.736717,25.0021129 50.6605265,25.8869905 L49.732098,26.815419 C49.0669551,26.1885483 48.2757782,25.8757728 47.3592272,25.8757728 C46.7244381,25.8757728 46.1424381,26.0321605 45.6138871,26.3455959 C45.0846762,26.6583714 44.6676422,27.0839837 44.362785,27.6204531 C44.0566082,28.1575823 43.9041796,28.7428816 43.9041796,29.3770109 C43.9041796,30.0118 44.0566082,30.5977592 44.362785,31.1342286 C44.6676422,31.670698 45.0846762,32.0956503 45.6138871,32.4097456 C46.1424381,32.7225211 46.7244381,32.8795687 47.3592272,32.8795687 C47.922751,32.8795687 48.3985129,32.7898272 48.7871728,32.6083646 C49.1745129,32.4288816 49.5090639,32.1972694 49.7914857,31.9155075 C50.1755265,31.5321265 50.4143973,30.9798204 50.508098,30.2585891 L47.3592272,30.2585891 L47.3592272,28.9421605 L51.7888939,28.9421605 C51.8364041,29.1770721 51.8594993,29.4522354 51.8594993,29.7650109 C51.8594993,30.3212762 51.7684381,30.8735823 51.589615,31.4219293 C51.4081524,31.9709361 51.119132,32.4447184 50.7192544,32.8445959 C49.858132,33.7446503 48.737683,34.1959973 47.3592272,34.1959973 C46.4888667,34.1959973 45.6778939,33.9775823 44.9263088,33.542732 Z M53.8806626,33.790181 C53.4029211,33.5202966 53.024819,33.1474735 52.7470163,32.6736912 C52.4685537,32.1999088 52.3293224,31.6733374 52.3293224,31.093317 C52.3293224,30.5053782 52.4685537,29.9748476 52.7470163,29.5004054 C53.024819,29.0266231 53.4029211,28.6570993 53.8806626,28.3905143 C54.3590639,28.1239293 54.8796966,27.9906367 55.4438803,27.9906367 C56.0080639,27.9906367 56.5293565,28.1239293 57.007098,28.3905143 C57.4835197,28.6570993 57.8622816,29.0266231 58.1414041,29.5004054 C58.4178871,29.9748476 58.5577782,30.5053782 58.5577782,31.093317 C58.5577782,31.6733374 58.4178871,32.1999088 58.1414041,32.6736912 C57.8622816,33.1474735 57.4835197,33.5202966 57.007098,33.790181 C56.5293565,34.0600653 56.0080639,34.1959973 55.4438803,34.1959973 C54.8796966,34.1959973 54.3590639,34.0600653 53.8806626,33.790181 Z M56.313581,32.732419 C56.5788463,32.5720721 56.793302,32.3490381 56.953649,32.0626571 C57.1146558,31.7762762 57.1944993,31.4536027 57.1944993,31.093317 C57.1944993,30.7323714 57.1146558,30.4090381 56.953649,30.1239769 C56.793302,29.8375959 56.5788463,29.613902 56.313581,29.4535551 C56.0469959,29.2932082 55.7566558,29.2133646 55.4438803,29.2133646 C55.1304449,29.2133646 54.8407646,29.2932082 54.5741796,29.4535551 C54.3082544,29.613902 54.0944585,29.8375959 53.9334517,30.1239769 C53.7724449,30.4090381 53.6926014,30.7323714 53.6926014,31.093317 C53.6926014,31.4536027 53.7724449,31.7762762 53.9334517,32.0626571 C54.0944585,32.3490381 54.3082544,32.5720721 54.5741796,32.732419 C54.8407646,32.892766 55.1304449,32.9732694 55.4438803,32.9732694 C55.7566558,32.9732694 56.0469959,32.892766 56.313581,32.732419 Z M60.6726422,33.790181 C60.1955605,33.5202966 59.8174585,33.1474735 59.5389959,32.6736912 C59.2611932,32.1999088 59.1219619,31.6733374 59.1219619,31.093317 C59.1219619,30.5053782 59.2611932,29.9748476 59.5389959,29.5004054 C59.8174585,29.0266231 60.1955605,28.6570993 60.6726422,28.3905143 C61.1517034,28.1239293 61.6723361,27.9906367 62.2358599,27.9906367 C62.8007034,27.9906367 63.3206762,28.1239293 63.7990776,28.3905143 C64.2761592,28.6570993 64.6549211,29.0266231 64.9333837,29.5004054 C65.2105265,29.9748476 65.3497578,30.5053782 65.3497578,31.093317 C65.3497578,31.6733374 65.2105265,32.1999088 64.9333837,32.6736912 C64.6549211,33.1474735 64.2761592,33.5202966 63.7990776,33.790181 C63.3206762,34.0600653 62.8007034,34.1959973 62.2358599,34.1959973 C61.6723361,34.1959973 61.1517034,34.0600653 60.6726422,33.790181 Z M63.1055605,32.732419 C63.3714857,32.5720721 63.5859415,32.3490381 63.7462884,32.0626571 C63.9072952,31.7762762 63.9871388,31.4536027 63.9871388,31.093317 C63.9871388,30.7323714 63.9072952,30.4090381 63.7462884,30.1239769 C63.5859415,29.8375959 63.3714857,29.613902 63.1055605,29.4535551 C62.8396354,29.2932082 62.5492952,29.2133646 62.2358599,29.2133646 C61.9230844,29.2133646 61.6327442,29.2932082 61.366819,29.4535551 C61.100234,29.613902 60.8864381,29.8375959 60.7260912,30.1239769 C60.5644245,30.4090381 60.484581,30.7323714 60.484581,31.093317 C60.484581,31.4536027 60.5644245,31.7762762 60.7260912,32.0626571 C60.8864381,32.3490381 61.100234,32.5720721 61.366819,32.732419 C61.6327442,32.892766 61.9230844,32.9732694 62.2358599,32.9732694 C62.5492952,32.9732694 62.8396354,32.892766 63.1055605,32.732419 Z M67.172302,36.428317 C66.701819,36.0594531 66.3639687,35.633181 66.1607306,35.1475211 L67.3484857,34.653283 C67.4732,34.9508816 67.6691796,35.2095483 67.9351048,35.429283 C68.2016898,35.6483578 68.5270027,35.7585551 68.9110435,35.7585551 C69.4283769,35.7585551 69.8335333,35.6021673 70.1278327,35.2880721 C70.4214721,34.9746367 70.5679619,34.5246095 70.5679619,33.9373306 L70.5679619,33.4906027 L70.5211116,33.4906027 C70.3568054,33.6945007 70.1304721,33.8621061 69.8454109,33.9960585 C69.5590299,34.1286912 69.2396558,34.1959973 68.8879483,34.1959973 C68.370615,34.1959973 67.8842952,34.0580857 67.4309687,33.7842422 C66.9756626,33.5097388 66.610098,33.1355959 66.3316354,32.6618136 C66.0538327,32.1880313 65.9146014,31.6687184 65.9146014,31.1045347 C65.9146014,30.5330925 66.0538327,30.0104803 66.3316354,29.5360381 C66.610098,29.0615959 66.9776422,28.6861333 67.4362476,28.4076707 C67.8948531,28.129868 68.3785333,27.9906367 68.8879483,27.9906367 C69.2396558,27.9906367 69.5590299,28.057283 69.8454109,28.1905755 C70.1304721,28.323868 70.3568054,28.4881741 70.5211116,28.6841537 L70.5679619,28.6841537 L70.5679619,28.178698 L71.8606354,28.178698 L71.8606354,33.7486095 C71.8606354,34.8301265 71.5841524,35.6391197 71.0325061,36.1755891 C70.4802,36.7127184 69.7728259,36.9806231 68.9110435,36.9806231 C68.2221456,36.9806231 67.6421252,36.7958612 67.172302,36.428317 Z M69.8454109,32.732419 C70.1001184,32.5720721 70.2993973,32.3490381 70.4452272,32.0626571 C70.5897374,31.7762762 70.6623224,31.456902 70.6623224,31.1045347 C70.6623224,30.7449088 70.5897374,30.4215755 70.4452272,30.1351946 C70.2993973,29.8494735 70.1001184,29.6244599 69.8454109,29.4594939 C69.5913633,29.2945279 69.3102612,29.2133646 69.0040844,29.2133646 C68.6919687,29.2133646 68.4029483,29.2945279 68.1416422,29.4594939 C67.8783565,29.6244599 67.6691796,29.8514531 67.5127918,30.1411333 C67.3550844,30.4308136 67.2778803,30.7521673 67.2778803,31.1045347 C67.2778803,31.456902 67.3550844,31.7762762 67.5127918,32.0626571 C67.6691796,32.3490381 67.8783565,32.5720721 68.1416422,32.732419 C68.4029483,32.892766 68.6919687,32.9732694 69.0040844,32.9732694 C69.3102612,32.9732694 69.5913633,32.892766 69.8454109,32.732419 Z M72.8002816,34.0072762 L74.1635605,34.0072762 L74.1635605,24.8879565 L72.8002816,24.8879565 L72.8002816,34.0072762 Z M76.3259347,33.7842422 C75.8561116,33.5097388 75.4879075,33.1355959 75.2213224,32.6618136 C74.9553973,32.1880313 74.8221048,31.6647592 74.8221048,31.093317 C74.8221048,30.4895415 74.9527578,29.9530721 75.2153837,29.483249 C75.4780095,29.0134259 75.8330163,28.6465415 76.2797442,28.3839156 C76.7258122,28.1219497 77.2154313,27.9906367 77.7479415,27.9906367 C78.4612544,27.9906367 79.0373156,28.1984939 79.4761252,28.6135483 C79.9149347,29.0286027 80.2230912,29.4792898 80.4038939,29.9649497 L80.5451048,30.317317 L76.3972,32.0329633 C76.7185537,32.659834 77.2193905,32.9732694 77.9010299,32.9732694 C78.5272408,32.9732694 79.0373156,32.6875483 79.4279551,32.1154463 L80.4863769,32.8208408 C80.2508054,33.1732082 79.918234,33.4906027 79.4873429,33.7723646 C79.0564517,34.0547864 78.5272408,34.1959973 77.9010299,34.1959973 C77.3210095,34.1959973 76.7964177,34.0580857 76.3259347,33.7842422 Z M78.9469143,29.8474939 C78.8683905,29.6521741 78.7238803,29.4931469 78.5120639,29.371732 C78.3002476,29.250317 78.0620367,29.1896095 77.7947918,29.1896095 C77.5526218,29.1896095 77.3018735,29.2595551 77.0432068,29.400766 C76.7838803,29.5419769 76.5733837,29.749834 76.4084177,30.0236776 C76.2447714,30.298181 76.1655878,30.622834 76.1735061,30.9996163 L78.9469143,29.8474939 Z" id="Fill-1" fill="#231F20"></path>
            </g>
        </g>
    </g>
</svg>